<?xml version="1.0" encoding="utf-8"?>
<svg width="128" height="128" viewBox="0 0 128 128" fill="none" xmlns="http://www.w3.org/2000/svg">
  <defs>
    <path id="path_1" d="M35 0L77 0C96.3326 0 112 15.6674 112 35L112 77C112 96.3326 96.3326 112 77 112L35 112C15.6674 112 0 96.3326 0 77L0 35C0 15.6674 15.6674 0 35 0L35 0Z" />
    <linearGradient id="gradient_2" gradientUnits="userSpaceOnUse" x1="95" y1="0" x2="56" y2="112">
      <stop offset="0" stop-color="#5FC9FA" />
      <stop offset="1" stop-color="#5A76DB" />
    </linearGradient>
    <linearGradient id="gradient_3" gradientUnits="userSpaceOnUse" x1="15" y1="-4" x2="112" y2="112">
      <stop offset="0" stop-color="#F5EB7F" />
      <stop offset="1" stop-color="#F21B1B" stop-opacity="0" />
    </linearGradient>
  </defs>
  <g>
    <g transform="translate(8 8)">
      <use p4:href="#path_1" fill="url(#gradient_2)" xmlns:p4="http://www.w3.org/1999/xlink" />
      <use p4:href="#path_1" fill="url(#gradient_3)" xmlns:p4="http://www.w3.org/1999/xlink" />
    </g>
    <g transform="translate(23 29)">
      <path d="M0 0L0 20.3469L6.805 20.3469Q8.94857 20.3469 10.5069 19.6256Q12.0721 18.8975 12.9227 17.5773Q13.7733 16.2503 13.7733 14.4674Q13.7733 12.9023 13.0724 11.8475Q12.3783 10.7859 11.2487 10.2551Q10.119 9.72434 8.75122 9.75837L8.75122 9.6699Q9.98293 9.6699 11.0241 9.11189Q12.0721 8.55388 12.6981 7.55355Q13.3242 6.54641 13.3242 5.21263Q13.3242 2.81727 11.4868 1.40863Q9.64948 0 6.55321 0L0 0ZM6.49876 8.19321L4.04216 8.19321L4.04216 3.37527L6.49876 3.37527Q7.72366 3.37527 8.41777 4.00134Q9.11869 4.6274 9.11869 5.77063Q9.11869 6.88665 8.41777 7.53993Q7.72366 8.19321 6.49876 8.19321ZM4.04216 16.9717L6.63486 16.9717Q8.00267 16.9717 8.77843 16.2503C9.30016 15.7649 9.56101 15.0957 9.56101 14.2429Q9.56101 12.9635 8.77843 12.2218Q8.00267 11.48 6.63486 11.48L4.04216 11.48L4.04216 16.9717Z" fill="#FFFFFF" fill-rule="evenodd" transform="translate(42 24)" />
      <path d="M8.92135 16.611L8.92135 20.3469L13.0996 20.3469L13.0996 8.64235L8.92135 8.64235L8.92135 12.9907L3.90607 12.9907L3.90607 11.9564L12.3783 0L7.64201 0L0 10.7859L0 16.611L8.92135 16.611L8.92135 16.611Z" fill="#FFFFFF" fill-opacity="0.498" transform="matrix(1 0 0 1 68.387 24)" />
      <path d="M7.11122 20.6259Q4.99487 20.6259 3.38889 19.7481C2.31823 19.1629 1.48576 18.3417 0.891453 17.2847Q0 15.6923 0 13.6032Q0 12.2082 0.530788 10.5546Q1.06158 8.89413 1.92582 7.47189L6.49877 0L11.1534 0L4.96084 9.64268L5.15819 9.75837Q5.77064 8.86011 6.73014 8.39056C7.37434 8.07299 8.09567 7.91421 8.89413 7.91421Q10.4797 7.91421 11.6774 8.68318Q12.8819 9.44534 13.5487 10.8268Q14.2156 12.2082 14.2156 14.0455Q14.2156 16.0258 13.3242 17.5025Q12.4327 18.9791 10.8404 19.8025C9.78332 20.3515 8.54027 20.6259 7.11122 20.6259ZM7.11124 17.1418Q8.47905 17.1418 9.30927 16.3048C9.86727 15.7468 10.1463 15.0118 10.1463 14.1Q10.1463 12.7117 9.30927 11.8611Q8.47905 11.0105 7.11124 11.0105Q5.74344 11.0105 4.90643 11.8611C4.34842 12.4282 4.06941 13.1745 4.06941 14.1Q4.06941 15.4678 4.90643 16.3048Q5.74344 17.1418 7.11124 17.1418Z" fill="#FFFFFF" fill-rule="evenodd" transform="translate(56.958 24)" />
      <path d="M38 25.526L0 0L0 16.8076L27 34.3343L38 25.526Z" fill="#FFFFFF" fill-rule="evenodd" fill-opacity="0.498" />
      <path d="M0 26.4847L0 43.1725L38 17.5267L38 0L0 26.4847L0 26.4847Z" fill="#FFFFFF" transform="translate(0 25.526)" />
    </g>
    <g fill="#FFFFFF" fill-opacity="0.498" transform="translate(64 44)">
      <path d="M2.04492 2.10047Q2.1416 2.18982 2.29688 2.18982Q2.45361 2.18982 2.54883 2.10047Q2.64551 2.00965 2.64551 1.86023Q2.64551 1.70936 2.54883 1.62Q2.45361 1.53064 2.29688 1.53064Q2.1416 1.53064 2.04492 1.62Q1.94971 1.70936 1.94971 1.86023Q1.94971 2.00965 2.04492 2.10047ZM0.348633 5.85047L0.306152 6.12L2.9458 6.12L2.98828 5.85047L1.85449 5.85047L2.3335 2.81971L0.978516 2.81971L0.936035 3.0907L1.99219 3.0907L1.5542 5.85047L0.348633 5.85047ZM4.51846 2.81971L3.99551 6.12L4.2958 6.12L4.63857 3.95936Q4.70449 3.52137 4.97695 3.26941Q5.24941 3.01746 5.64639 3.01746Q6.03604 3.01746 6.21914 3.26648Q6.40225 3.51551 6.33047 3.95936L5.9877 6.12L6.28799 6.12L6.63662 3.91834Q6.72012 3.38367 6.47695 3.07166Q6.23379 2.75965 5.74746 2.75965Q5.30947 2.75965 5.00625 3.01453Q4.82527 3.1674 4.72913 3.38191L4.81729 2.81971L4.51846 2.81971ZM8.11846 2.81971L7.42266 7.19959L7.72148 7.19959L7.8958 6.12L7.96758 5.67029L7.98704 5.67029Q8.03113 5.81672 8.13604 5.93104Q8.36455 6.18006 8.80254 6.18006Q9.13213 6.18006 9.40166 6.03064Q9.67266 5.87977 9.85137 5.61023Q10.0315 5.3407 10.0857 4.98035L10.2483 3.9535Q10.3318 3.41443 10.0887 3.08777Q9.84551 2.75965 9.34746 2.75965Q8.90947 2.75965 8.60039 3.00574Q8.45684 3.12004 8.36574 3.26941L8.34551 3.26941L8.41729 2.81971L8.11846 2.81971ZM9.45 5.67322Q9.18633 5.92225 8.7835 5.92225Q8.38213 5.92225 8.19316 5.67322Q8.0042 5.4242 8.07598 4.98035L8.23857 3.9535Q8.31035 3.50965 8.57695 3.26355Q8.84356 3.01746 9.24639 3.01746Q9.64775 3.01746 9.83379 3.26355Q10.0198 3.50965 9.94805 3.9535L9.78545 4.98035Q9.71367 5.4242 9.45 5.67322ZM11.5324 5.8534Q11.7844 6.18006 12.3176 6.18006Q12.6779 6.18006 12.9621 6.03064Q13.2478 5.87977 13.4309 5.6073Q13.614 5.33338 13.674 4.95545L14.0095 2.81971L13.7106 2.81971L13.3737 4.95545Q13.302 5.40662 13.0339 5.65857Q12.7673 5.91053 12.3659 5.91053Q11.9704 5.91053 11.7844 5.65857Q11.5983 5.40662 11.6701 4.95545L12.0056 2.81971L11.7053 2.81971L11.3698 4.95545Q11.2805 5.52527 11.5324 5.8534ZM15.7462 5.92811Q15.9176 6.12 16.2955 6.12L17.1056 6.12L17.148 5.85047L16.338 5.85047Q16.1056 5.85047 16.0045 5.73526Q15.8992 5.61519 15.9366 5.37L16.2955 3.0907L17.6461 3.0907L17.6886 2.81971L16.338 2.81971L16.4815 1.92029L16.1827 1.92029L16.0377 2.81971L15.0782 2.81971L15.0357 3.0907L15.9967 3.0907L15.6363 5.37Q15.5763 5.73621 15.7462 5.92811ZM19.6318 3.50379Q19.7344 3.62391 19.9321 3.62391Q20.1299 3.62391 20.2676 3.50379Q20.4053 3.38367 20.436 3.19178Q20.4653 2.99988 20.3657 2.87977Q20.2676 2.75965 20.0698 2.75965Q19.8721 2.75965 19.73 2.87977Q19.5894 2.99988 19.5601 3.19178Q19.5293 3.38367 19.6318 3.50379ZM19.2261 6.05994Q19.3257 6.18006 19.5234 6.18006Q19.7227 6.18006 19.8633 6.05994Q20.0039 5.93982 20.0347 5.74793Q20.064 5.55604 19.9614 5.43592Q19.8604 5.3158 19.6626 5.3158Q19.4634 5.3158 19.3257 5.43592Q19.188 5.55604 19.1587 5.74793Q19.1279 5.93982 19.2261 6.05994Z" />
      <path d="M25.9075 5.8534Q26.1536 6.18006 26.6458 6.18006Q27.0779 6.18006 27.3929 5.93396Q27.5393 5.81955 27.6306 5.67029L27.6478 5.67029L27.576 6.12L27.8763 6.12L28.3978 2.81971L28.0975 2.81971L28.0257 3.26941L28.0102 3.26941Q27.9661 3.12004 27.8572 3.00574Q27.6243 2.75965 27.1922 2.75965Q26.8626 2.75965 26.5916 2.91053Q26.3221 3.05994 26.1448 3.33094Q25.9676 3.60047 25.9075 3.95936L25.7464 4.98621Q25.6614 5.52527 25.9075 5.8534ZM27.4222 5.67322Q27.1556 5.92225 26.7483 5.92225Q26.3455 5.92225 26.1624 5.67322Q25.9793 5.4242 26.0467 4.98621L26.2078 3.95936Q26.2737 3.51551 26.5403 3.26648Q26.8084 3.01746 27.2098 3.01746Q27.6185 3.01746 27.8016 3.26648Q27.9847 3.51551 27.9173 3.95936L27.7562 4.98621Q27.6902 5.4242 27.4222 5.67322ZM29.7185 2.81971L29.1955 6.12L29.4958 6.12L29.8386 3.95936Q29.9045 3.52137 30.177 3.26941Q30.4494 3.01746 30.8464 3.01746Q31.236 3.01746 31.4191 3.26648Q31.6022 3.51551 31.5305 3.95936L31.1877 6.12L31.488 6.12L31.8366 3.91834Q31.9201 3.38367 31.677 3.07166Q31.4338 2.75965 30.9475 2.75965Q30.5095 2.75965 30.2063 3.01453Q30.0253 3.1674 29.9291 3.38191L30.0173 2.81971L29.7185 2.81971ZM33.0123 6.93006L32.964 7.19959L33.8341 7.19959Q34.338 7.19959 34.6412 6.95057Q34.9444 6.70154 35.0221 6.20936L35.5553 2.81971L35.2564 2.81971L34.962 4.68006Q34.8961 5.11805 34.6222 5.37Q34.3497 5.62195 33.9542 5.62195Q33.5704 5.62195 33.3844 5.37293Q33.1983 5.12391 33.2701 4.68006L33.5646 2.81971L33.2643 2.81971L32.964 4.72254Q32.8805 5.24988 33.1222 5.56482Q33.3653 5.87977 33.8517 5.87977Q34.2955 5.87977 34.5958 5.62488Q34.7755 5.47233 34.8713 5.25839L34.7818 5.81971L34.7218 6.20936Q34.6617 6.56385 34.4479 6.74695Q34.2355 6.93006 33.8824 6.93006L33.0123 6.93006Z" />
    </g>
  </g>
</svg>